<svg xmlns="http://www.w3.org/2000/svg" viewBox="0 0 1000 720" role="img" aria-labelledby="title desc">
  <title id="title">SFT Deep Runner</title>
  <desc id="desc">Dummy katalog slika ribolovne varalice.</desc>
  <defs>
    <radialGradient id="bg" cx="50%" cy="42%" r="70%">
      <stop offset="0%" stop-color="#1a4724"/>
      <stop offset="56%" stop-color="#0d2412"/>
      <stop offset="100%" stop-color="#061108"/>
    </radialGradient>
    <linearGradient id="body" x1="180" x2="820" y1="260" y2="260">
      <stop offset="0%" stop-color="#39a0ed"/>
      <stop offset="55%" stop-color="#0b132b"/>
      <stop offset="100%" stop-color="#39a0ed"/>
    </linearGradient>
    <filter id="shadow" x="-20%" y="-20%" width="140%" height="150%">
      <feDropShadow dx="0" dy="28" stdDeviation="28" flood-color="#000" flood-opacity="0.45"/>
    </filter>
  </defs>
  <rect width="1000" height="720" fill="url(#bg)"/>
  <path d="M0 514 C170 455 288 563 464 506 C658 443 782 491 1000 430 L1000 720 L0 720 Z" fill="#0a1a0d" opacity="0.78"/>
  <g filter="url(#shadow)" transform="translate(0 14) scale(1.07) translate(-35.00000000000003 -23.10000000000002)">
    <path d="M164 262 C256 156 509 134 734 205 C796 224 868 255 906 282 C836 322 778 359 711 385 C503 466 270 414 164 306 C129 285 129 282 164 262 Z" fill="url(#body)"/>
    <path d="M172 266 C256 234 394 222 530 239 C652 254 766 288 870 283" fill="none" stroke="#f7f4e8" stroke-width="18" stroke-linecap="round" opacity="0.88"/>
    <path d="M198 310 C314 358 516 394 720 340" fill="none" stroke="#f7f4e8" stroke-width="12" stroke-linecap="round" opacity="0.55"/>
    <circle cx="350" cy="253.3" r="14" fill="#f7f4e8" opacity="0.9"/><circle cx="422" cy="230.2" r="10" fill="#f7f4e8" opacity="0.9"/><circle cx="494" cy="203.3" r="14" fill="#f7f4e8" opacity="0.9"/><circle cx="566" cy="197.2" r="10" fill="#f7f4e8" opacity="0.9"/><circle cx="638" cy="217.6" r="14" fill="#f7f4e8" opacity="0.9"/><circle cx="710" cy="245.7" r="10" fill="#f7f4e8" opacity="0.9"/>
    <circle cx="760" cy="258" r="34" fill="#f7f4e8"/>
    <circle cx="772" cy="252" r="13" fill="#061108"/>
    <path d="M907 282 C950 242 973 236 991 247 C972 286 947 314 907 333 Z" fill="#f7f4e8"/>
    <path d="M188 284 C133 245 91 237 50 251 C86 286 122 314 189 317 Z" fill="#0b132b"/>
    <path d="M452 396 C424 470 386 506 344 508" fill="none" stroke="#cbd5c0" stroke-width="9" stroke-linecap="round"/>
    <path d="M658 383 C641 454 608 493 570 503" fill="none" stroke="#cbd5c0" stroke-width="9" stroke-linecap="round"/>
    <circle cx="342" cy="508" r="19" fill="none" stroke="#cbd5c0" stroke-width="8"/>
    <circle cx="570" cy="503" r="19" fill="none" stroke="#cbd5c0" stroke-width="8"/>
  </g>
  <text x="62" y="642" fill="#d7b94a" font-family="Arial, sans-serif" font-size="21" font-weight="700" letter-spacing="4">SFT DEEP RUNNER</text>
  <text x="62" y="674" fill="#b7c3a1" font-family="Arial, sans-serif" font-size="16">Dummy model varalice za SFT Fishing galeriju</text>
</svg>