<?xml version="1.0" encoding="UTF-8"?>
<!DOCTYPE svg PUBLIC "-//W3C//DTD SVG 1.1//EN" "http://www.w3.org/Graphics/SVG/1.1/DTD/svg11.dtd">
<!-- Creator: CorelDRAW -->
<svg xmlns="http://www.w3.org/2000/svg" xml:space="preserve" width="1.29286in" height="0.443126in" version="1.1" style="shape-rendering:geometricPrecision; text-rendering:geometricPrecision; image-rendering:optimizeQuality; fill-rule:evenodd; clip-rule:evenodd"
viewBox="0 0 80.04 27.44"
 xmlns:xlink="http://www.w3.org/1999/xlink"
 xmlns:xodm="http://www.corel.com/coreldraw/odm/2003">
 <defs>
  <style type="text/css">
   <![CDATA[
    .fil0 {fill:white;fill-rule:nonzero}
    .fil1 {fill:url(#id0)}
   ]]>
  </style>
  <linearGradient id="id0" gradientUnits="userSpaceOnUse" x1="40.02" y1="0" x2="40.02" y2="22.08">
   <stop offset="0" style="stop-opacity:1; stop-color:#124222"/>
   <stop offset="0.411765" style="stop-opacity:1; stop-color:#35A64D"/>
   <stop offset="0.729412" style="stop-opacity:1; stop-color:#B2CF38"/>
   <stop offset="1" style="stop-opacity:1; stop-color:#9BB75A"/>
  </linearGradient>
 </defs>
 <g id="Layer_x0020_1">
  <metadata id="CorelCorpID_0Corel-Layer"/>
  <path class="fil0" d="M3.27 25.39c0.41,0 0.72,0.08 0.93,0.23 0.21,0.15 0.32,0.38 0.32,0.68 0,0.17 -0.03,0.32 -0.08,0.46 -0.05,0.14 -0.14,0.25 -0.25,0.34 -0.12,0.09 -0.26,0.16 -0.44,0.21 -0.18,0.05 -0.4,0.07 -0.65,0.07l-3.09 0 0.66 -0.85 2.51 0c0.12,0 0.21,-0.02 0.27,-0.06 0.06,-0.04 0.08,-0.1 0.08,-0.19 0,-0.09 -0.03,-0.15 -0.08,-0.18 -0.06,-0.04 -0.15,-0.05 -0.27,-0.05l-1.81 0c-0.21,0 -0.4,-0.02 -0.56,-0.07 -0.16,-0.05 -0.28,-0.11 -0.39,-0.19 -0.1,-0.08 -0.18,-0.18 -0.23,-0.3 -0.05,-0.12 -0.07,-0.25 -0.07,-0.39 0,-0.16 0.03,-0.3 0.08,-0.42 0.05,-0.13 0.14,-0.24 0.25,-0.32 0.11,-0.09 0.26,-0.16 0.44,-0.21 0.18,-0.05 0.4,-0.07 0.65,-0.07l2.88 0 -0.66 0.86 -2.3 0c-0.12,0 -0.21,0.02 -0.27,0.05 -0.06,0.03 -0.09,0.09 -0.09,0.18 0,0.09 0.03,0.15 0.09,0.18 0.06,0.03 0.15,0.05 0.27,0.05l1.81 0z"/>
  <path class="fil0" d="M9.35 25.31c0,0.19 -0.04,0.35 -0.11,0.5 -0.07,0.15 -0.18,0.28 -0.32,0.38 -0.14,0.11 -0.31,0.19 -0.51,0.25 -0.2,0.06 -0.43,0.09 -0.69,0.09l-1.74 0 0 0.85 -1.02 0 0 -1.7 2.86 0c0.16,0 0.28,-0.03 0.37,-0.1 0.09,-0.07 0.13,-0.16 0.13,-0.28 0,-0.12 -0.04,-0.21 -0.13,-0.28 -0.09,-0.07 -0.21,-0.1 -0.37,-0.1l-2.86 0 0.68 -0.86 2.08 0c0.26,0 0.49,0.03 0.69,0.09 0.2,0.06 0.37,0.15 0.51,0.26 0.14,0.11 0.24,0.24 0.32,0.39 0.07,0.15 0.11,0.32 0.11,0.51z"/>
  <path class="fil0" d="M12.19 24.01c0.81,0 1.41,0.14 1.82,0.41 0.41,0.27 0.61,0.71 0.61,1.3 0,0.6 -0.2,1.03 -0.6,1.3 -0.4,0.27 -1.01,0.41 -1.82,0.41 -0.81,0 -1.42,-0.14 -1.82,-0.41 -0.4,-0.27 -0.6,-0.71 -0.6,-1.3 0,-0.59 0.2,-1.03 0.6,-1.3 0.4,-0.27 1.01,-0.41 1.82,-0.41zm0 2.56c0.26,0 0.48,-0.01 0.65,-0.03 0.18,-0.02 0.32,-0.06 0.43,-0.13 0.11,-0.06 0.19,-0.15 0.24,-0.26 0.05,-0.11 0.07,-0.26 0.07,-0.43 0,-0.18 -0.02,-0.32 -0.07,-0.43 -0.05,-0.11 -0.13,-0.2 -0.24,-0.26 -0.11,-0.06 -0.26,-0.1 -0.43,-0.12 -0.18,-0.02 -0.4,-0.03 -0.65,-0.03 -0.26,0 -0.48,0.01 -0.65,0.03 -0.18,0.02 -0.32,0.06 -0.43,0.12 -0.11,0.06 -0.19,0.15 -0.24,0.26 -0.05,0.11 -0.07,0.26 -0.07,0.43 0,0.18 0.02,0.32 0.07,0.43 0.05,0.11 0.13,0.2 0.24,0.26 0.11,0.06 0.26,0.1 0.43,0.13 0.18,0.02 0.4,0.03 0.65,0.03z"/>
  <path class="fil0" d="M19.84 27.38l-1.37 0 -0.74 -0.88 -1.58 0 0 0.88 -1.03 0 0 -1.7 2.89 0c0.16,0 0.29,-0.03 0.4,-0.1 0.11,-0.07 0.16,-0.16 0.16,-0.27 0,-0.13 -0.05,-0.23 -0.15,-0.29 -0.1,-0.06 -0.24,-0.1 -0.42,-0.1l-2.89 0 0.67 -0.86 2.13 0c0.19,0 0.38,0.02 0.59,0.05 0.2,0.03 0.39,0.1 0.55,0.19 0.17,0.09 0.3,0.21 0.41,0.36 0.11,0.15 0.16,0.35 0.16,0.59 0,0.13 -0.02,0.25 -0.06,0.37 -0.04,0.12 -0.1,0.22 -0.17,0.31 -0.07,0.09 -0.17,0.17 -0.27,0.24 -0.11,0.06 -0.23,0.11 -0.36,0.14 0.06,0.04 0.12,0.1 0.19,0.16 0.07,0.07 0.16,0.16 0.28,0.27l0.61 0.64z"/>
  <polygon class="fil0" points="24.33,24.06 23.67,24.93 22.48,24.93 22.48,27.38 21.46,27.38 21.46,24.93 19.9,24.93 20.56,24.06 "/>
  <polygon class="fil0" points="30.26,24.06 29.6,24.93 27.58,24.93 27.58,25.36 30.08,25.36 29.45,26.17 27.58,26.17 27.58,27.38 26.54,27.38 26.54,24.06 "/>
  <polygon class="fil0" points="31.65,27.38 30.63,27.38 30.63,24.06 31.65,24.06 "/>
  <path class="fil0" d="M35.37 25.39c0.41,0 0.72,0.08 0.93,0.23 0.21,0.15 0.32,0.38 0.32,0.68 0,0.17 -0.03,0.32 -0.08,0.46 -0.05,0.14 -0.14,0.25 -0.25,0.34 -0.12,0.09 -0.26,0.16 -0.44,0.21 -0.18,0.05 -0.4,0.07 -0.65,0.07l-3.09 0 0.66 -0.85 2.51 0c0.12,0 0.21,-0.02 0.27,-0.06 0.06,-0.04 0.08,-0.1 0.08,-0.19 0,-0.09 -0.03,-0.15 -0.08,-0.18 -0.06,-0.04 -0.15,-0.05 -0.27,-0.05l-1.81 0c-0.21,0 -0.4,-0.02 -0.56,-0.07 -0.16,-0.05 -0.28,-0.11 -0.39,-0.19 -0.1,-0.08 -0.18,-0.18 -0.23,-0.3 -0.05,-0.12 -0.07,-0.25 -0.07,-0.39 0,-0.16 0.03,-0.3 0.08,-0.42 0.05,-0.13 0.14,-0.24 0.25,-0.32 0.11,-0.09 0.26,-0.16 0.44,-0.21 0.18,-0.05 0.4,-0.07 0.65,-0.07l2.88 0 -0.66 0.86 -2.3 0c-0.12,0 -0.21,0.02 -0.27,0.05 -0.06,0.03 -0.09,0.09 -0.09,0.18 0,0.09 0.03,0.15 0.09,0.18 0.06,0.03 0.15,0.05 0.27,0.05l1.81 0z"/>
  <polygon class="fil0" points="41.1,27.38 40.07,27.38 40.07,26.1 38.1,26.1 38.1,27.38 37.07,27.38 37.07,24.06 38.1,24.06 38.1,25.24 40.07,25.24 40.07,24.06 41.1,24.06 "/>
  <polygon class="fil0" points="42.77,27.38 41.74,27.38 41.74,24.06 42.77,24.06 "/>
  <path class="fil0" d="M46.77 27.44c-0.07,0 -0.13,-0.01 -0.2,-0.03 -0.06,-0.02 -0.14,-0.07 -0.22,-0.15l-2.03 -1.83 0 1.95 -0.93 0 0 -2.75c0,-0.11 0.02,-0.2 0.05,-0.28 0.03,-0.08 0.07,-0.14 0.12,-0.19 0.05,-0.05 0.11,-0.09 0.18,-0.11 0.07,-0.02 0.14,-0.03 0.21,-0.03 0.06,0 0.13,0.01 0.19,0.03 0.06,0.02 0.14,0.07 0.22,0.15l2.03 1.83 0 -1.95 0.94 0 0 2.75c0,0.11 -0.02,0.2 -0.05,0.28 -0.03,0.08 -0.07,0.14 -0.12,0.2 -0.05,0.05 -0.11,0.09 -0.18,0.11 -0.07,0.02 -0.14,0.03 -0.21,0.03z"/>
  <path class="fil0" d="M49.99 25.31l2.12 0 0 2.07 -2.28 0c-0.29,0 -0.55,-0.04 -0.8,-0.13 -0.24,-0.09 -0.46,-0.2 -0.63,-0.35 -0.18,-0.15 -0.32,-0.33 -0.42,-0.54 -0.1,-0.21 -0.15,-0.43 -0.15,-0.67 0,-0.24 0.05,-0.46 0.15,-0.66 0.1,-0.2 0.24,-0.37 0.42,-0.52 0.18,-0.14 0.39,-0.25 0.63,-0.33 0.24,-0.08 0.51,-0.12 0.8,-0.12l2.38 0 -0.66 0.86 -1.71 0c-0.14,0 -0.27,0.02 -0.39,0.06 -0.12,0.04 -0.22,0.1 -0.31,0.17 -0.09,0.07 -0.16,0.16 -0.21,0.26 -0.05,0.1 -0.07,0.21 -0.07,0.32 0,0.12 0.02,0.23 0.07,0.32 0.05,0.1 0.12,0.18 0.2,0.25 0.09,0.07 0.19,0.12 0.31,0.16 0.12,0.04 0.25,0.06 0.39,0.06l1.25 0 0 -0.48 -1.72 0 0.61 -0.74z"/>
  <polygon class="fil0" points="58.72,24.06 58.06,24.93 56.87,24.93 56.87,27.38 55.85,27.38 55.85,24.93 54.29,24.93 54.95,24.06 "/>
  <path class="fil0" d="M59.39 27.38l0.62 -0.85 0.83 0 0.31 0c0.11,0 0.2,0 0.28,0.01 -0.05,-0.06 -0.1,-0.13 -0.16,-0.23 -0.06,-0.09 -0.12,-0.18 -0.18,-0.26l-0.6 -0.88 -1.56 2.2 -1.22 0 2.13 -3c0.07,-0.1 0.16,-0.18 0.26,-0.26 0.11,-0.08 0.24,-0.11 0.4,-0.11 0.16,0 0.29,0.04 0.39,0.11 0.1,0.07 0.19,0.16 0.27,0.27l2.07 3 -3.86 0z"/>
  <path class="fil0" d="M67.33 26.53l-0.66 0.85 -1.67 0c-0.29,0 -0.55,-0.04 -0.8,-0.13 -0.24,-0.09 -0.46,-0.2 -0.63,-0.35 -0.18,-0.15 -0.32,-0.33 -0.42,-0.54 -0.1,-0.21 -0.15,-0.43 -0.15,-0.67 0,-0.24 0.05,-0.46 0.15,-0.66 0.1,-0.2 0.24,-0.37 0.42,-0.52 0.18,-0.14 0.39,-0.25 0.63,-0.33 0.24,-0.08 0.51,-0.12 0.8,-0.12l2.33 0 -0.66 0.86 -1.67 0c-0.14,0 -0.27,0.02 -0.39,0.06 -0.12,0.04 -0.22,0.1 -0.31,0.17 -0.09,0.07 -0.15,0.16 -0.2,0.26 -0.05,0.1 -0.07,0.21 -0.07,0.33 0,0.12 0.02,0.23 0.07,0.32 0.05,0.1 0.12,0.18 0.2,0.25 0.09,0.07 0.19,0.12 0.31,0.16 0.12,0.04 0.25,0.06 0.39,0.06l2.33 0z"/>
  <path class="fil0" d="M71.87 27.38l-1.55 0 -1 -0.87c-0.17,-0.15 -0.3,-0.26 -0.39,-0.35 -0.09,-0.08 -0.16,-0.15 -0.22,-0.21 0,0.08 0.01,0.15 0.01,0.24 0,0.08 0,0.16 0,0.24l0 0.95 -1.03 0 0 -3.32 1.03 0 0 0.77c0,0.1 -0,0.2 -0,0.3 -0,0.1 -0.01,0.19 -0.01,0.28 0.07,-0.06 0.15,-0.13 0.24,-0.22 0.09,-0.09 0.22,-0.19 0.37,-0.32l0.96 -0.81 1.49 0 -1.27 0.95c-0.11,0.08 -0.21,0.16 -0.29,0.22 -0.08,0.06 -0.16,0.12 -0.23,0.16 -0.07,0.05 -0.13,0.09 -0.18,0.12 -0.05,0.04 -0.11,0.07 -0.16,0.1 0.1,0.07 0.21,0.15 0.35,0.25 0.14,0.1 0.31,0.24 0.53,0.41l1.37 1.1z"/>
  <polygon class="fil0" points="75.8,26.53 75.14,27.38 72.21,27.38 72.21,24.06 73.23,24.06 73.23,26.53 "/>
  <polygon class="fil0" points="80,26.53 79.34,27.38 76.15,27.38 76.15,24.06 79.99,24.06 79.33,24.93 77.18,24.93 77.18,25.32 79.81,25.32 79.22,26.08 77.18,26.08 77.18,26.53 "/>
  <path class="fil1" d="M10.26 0c-1.67,0 -3.11,0.17 -4.31,0.5 -1.2,0.33 -2.18,0.79 -2.94,1.39 -0.76,0.59 -1.32,1.31 -1.68,2.16 -0.36,0.85 -0.54,1.79 -0.54,2.82 0,0.95 0.17,1.81 0.5,2.59 0.33,0.78 0.84,1.45 1.52,2 0.68,0.55 1.54,0.98 2.57,1.29 1.03,0.31 2.27,0.46 3.7,0.46l12.01 0c0.81,0 1.41,0.12 1.78,0.36 0.37,0.24 0.56,0.65 0.56,1.22 0,0.57 -0.19,0.98 -0.56,1.24 -0.37,0.25 -0.97,0.38 -1.78,0.38l-16.69 0 -4.39 5.68 20.56 0c1.67,0 3.11,-0.17 4.31,-0.5 1.2,-0.33 2.18,-0.8 2.95,-1.42 0.77,-0.62 1.33,-1.37 1.68,-2.28 0.28,-0.73 0.45,-1.53 0.51,-2.4l0 6.59 6.86 0 0 -8.09 12.47 0 4.16 -5.38 -16.63 0 0 -2.87 24.04 0 0 16.34 6.83 0 0 -16.34 7.89 0 4.42 -5.74 -69.78 0zm-2.29 8.46c-0.39,-0.23 -0.58,-0.63 -0.58,-1.2 0,-0.57 0.19,-0.97 0.58,-1.19 0.38,-0.22 0.97,-0.33 1.77,-0.33l20.27 0 0 8.53c-0.12,-1.74 -0.82,-3.06 -2.09,-3.96 -1.41,-1 -3.46,-1.5 -6.17,-1.5l-12.01 0c-0.79,0 -1.38,-0.12 -1.77,-0.35z"/>
 </g>
</svg>
